# 3ds Max Wavefront OBJ Exporter v0.99 - (c)2007 guruware
# File Created: 20.10.2025 15:14:39

mtllib salas.mtl

#
# object salas2
#

v  22.8002 3.2898 -2.3514
v  23.1525 3.2898 -2.3514
v  23.1525 3.2898 -2.8449
v  23.1525 3.2898 -17.5260
v  22.8002 3.2898 -17.5260
v  22.8002 -0.9202 -2.3514
v  41.5753 -0.9202 -2.3514
v  41.5753 3.2898 -2.3514
v  41.2940 3.2898 -2.3514
v  22.8002 -0.9202 -17.5260
v  41.5753 -0.9202 -17.5260
v  23.1525 -0.7102 -17.5260
v  41.2940 3.2898 -17.5260
v  41.5753 3.2898 -17.5260
v  41.2940 -0.7102 -17.5260
v  23.1525 -0.7102 -2.8449
v  41.2940 3.2898 -2.8449
v  41.2940 -0.7102 -2.8449
v  41.2940 -0.7102 -9.2033
v  41.2940 3.2898 -9.2033
v  41.5753 3.2898 -9.2033
v  34.8067 3.2898 -17.5260
v  34.8067 -0.7102 -17.5260
v  41.2940 -0.7102 -17.4051
v  41.2940 3.2898 -17.4051
v  34.8067 3.2898 -17.4051
v  34.8067 -0.7102 -17.4051
v  30.3192 3.2898 -17.5260
v  30.3192 -0.7102 -17.5260
v  30.3192 -0.7102 -17.4051
v  30.3192 3.2898 -17.4051
v  23.1525 3.2898 -17.4051
v  23.1525 -0.7102 -17.4051
v  23.1525 -0.7102 -32.8013
v  4.3774 -0.7102 -17.5260
v  4.3774 -0.7102 -32.8013
v  4.6587 3.4998 -17.5260
v  4.3774 3.4998 -17.5260
v  23.1525 3.4998 -17.5260
v  22.8002 3.4998 -17.5260
v  22.8002 3.4998 -18.0228
v  23.1525 3.4998 -24.3779
v  22.8002 3.4998 -24.3779
v  4.6587 3.4998 -18.0228
v  4.6587 -0.5002 -18.0228
v  22.8002 -0.5002 -18.0228
v  22.8002 -0.5002 -24.3779
v  23.1525 -0.5002 -24.3779
v  23.1525 3.4998 -32.8013
v  23.1525 3.4998 -27.8811
v  23.1525 -0.5002 -27.8811
v  22.8002 3.4998 -32.8013
v  22.8002 3.4998 -27.8811
v  22.8002 -0.5002 -32.8013
v  22.8002 -0.5002 -27.8811
v  4.6587 -0.5002 -32.8013
v  4.3774 3.4998 -32.8013
v  4.6587 3.4998 -32.8013
v  11.1460 3.4998 -32.8013
v  11.1460 -0.5002 -32.8013
v  11.1460 3.4998 -32.6796
v  11.1460 -0.5002 -32.6796
v  4.6587 -0.5002 -32.6796
v  4.6587 3.4998 -32.6796
v  15.6335 3.4998 -32.8013
v  15.6335 -0.5002 -32.8013
v  22.8002 3.4998 -32.6796
v  22.8002 -0.5002 -32.6796
v  15.6335 -0.5002 -32.6796
v  15.6335 3.4998 -32.6796
v  56.8507 -0.9202 -17.5260
v  41.5753 -0.9202 -36.3011
v  56.8507 -0.9202 -36.3011
v  41.5753 3.2898 -17.8783
v  41.5753 -0.7102 -17.8783
v  41.5753 3.2898 -36.0198
v  41.5753 3.2898 -36.3011
v  41.5753 -0.7102 -36.0198
v  56.8507 3.2898 -17.5260
v  46.4956 3.2898 -17.5260
v  56.8507 3.2898 -36.3011
v  56.8507 3.2898 -36.0198
v  56.8507 3.2898 -17.8783
v  56.3539 3.2898 -36.0198
v  56.3539 -0.7102 -36.0198
v  56.3539 -0.7102 -17.8783
v  56.3539 3.2898 -17.8783
v  46.4956 -0.7102 -17.8783
v  46.4956 3.2898 -17.8783
v  41.5753 3.2898 -29.5325
v  41.5753 -0.7102 -29.5325
v  41.6970 -0.7102 -36.0198
v  41.6970 3.2898 -36.0198
v  41.6970 3.2898 -29.5325
v  41.6970 -0.7102 -29.5325
v  41.5753 3.2898 -25.0450
v  41.5753 -0.7102 -25.0450
v  41.6970 -0.7102 -25.0450
v  41.6970 3.2898 -25.0450
v  41.6970 3.2898 -17.8783
v  41.6970 -0.7102 -17.8783
# 101 vertices

vn 0.0000 1.0000 0.0000
vn -0.0000 -0.0000 1.0000
vn 0.0000 -1.0000 -0.0000
vn 0.0000 0.0000 -1.0000
vn -1.0000 0.0000 -0.0000
vn 1.0000 0.0000 -0.0000
vn -0.0000 0.0000 -1.0000
vn -1.0000 0.0000 0.0000
vn -0.0000 1.0000 -0.0000
vn -1.0000 -0.0000 -0.0000
vn 1.0000 -0.0000 -0.0000
vn 0.0000 1.0000 -0.0000
vn -1.0000 -0.0000 0.0000
vn -0.0000 -1.0000 -0.0000
vn 0.0000 -0.0000 1.0000
vn 0.0000 0.0000 1.0000
vn 1.0000 -0.0000 0.0000
vn -0.0000 1.0000 0.0000
vn -0.0000 0.0000 1.0000
vn -0.0000 -1.0000 0.0000
# 20 vertex normals

vt -0.0000 0.0000 0.0000
vt 13.8705 0.0000 0.0000
vt 13.8705 9.6421 0.0000
vt 13.8705 296.4570 0.0000
vt -0.0000 296.4570 0.0000
vt 0.0000 0.0000 0.0000
vt 739.1780 -0.0000 0.0000
vt 739.1780 165.7480 0.0000
vt 728.1040 165.7480 0.0000
vt 13.8705 165.7480 0.0000
vt 0.0000 165.7480 0.0000
vt 0.0000 296.4570 0.0000
vt -739.1780 296.4570 0.0000
vt -739.1780 0.0000 0.0000
vt -13.8705 165.7480 0.0000
vt -13.8705 8.2677 0.0000
vt -728.1040 165.7480 0.0000
vt -739.1780 165.7480 0.0000
vt -728.1040 8.2677 0.0000
vt -296.4570 165.7480 0.0000
vt -296.4570 0.0000 0.0000
vt 296.4570 8.2677 0.0000
vt 296.4570 165.7480 0.0000
vt 9.6421 165.7480 0.0000
vt 9.6421 8.2677 0.0000
vt 728.1040 9.6421 0.0000
vt 728.1040 133.8620 0.0000
vt 728.1040 296.4570 0.0000
vt -9.6421 8.2677 0.0000
vt -9.6421 165.7480 0.0000
vt -133.8620 165.7480 0.0000
vt -133.8620 8.2677 0.0000
vt 739.1780 133.8620 0.0000
vt 728.1040 -0.0000 0.0000
vt 739.1780 296.4570 0.0000
vt -296.4570 8.2677 0.0000
vt 133.8620 165.7480 0.0000
vt -0.0000 165.7480 0.0000
vt 296.4570 0.0000 0.0000
vt 13.8705 -0.0000 0.0000
vt 0.0000 45.2756 0.0000
vt -282.1540 45.2756 0.0000
vt -282.1540 -0.0000 0.0000
vt -0.0000 -0.0000 0.0000
vt -2.3622 -0.0000 0.0000
vt 0.0000 -0.0000 0.0000
vt -0.0000 45.2756 0.0000
vt -2.3622 45.2756 0.0000
vt 282.1540 -2.3622 0.0000
vt 282.1540 0.0000 0.0000
vt -0.0000 -2.3622 0.0000
vt 2.3622 45.2756 0.0000
vt 2.3622 -0.0000 0.0000
vt -282.1540 0.0000 0.0000
vt -282.1540 -2.3622 0.0000
vt 282.1540 45.2756 0.0000
vt -739.1780 -0.0000 0.0000
vt 739.1780 0.0000 0.0000
vt 0.0000 132.9790 0.0000
vt 13.8705 132.9790 0.0000
vt 132.9790 165.7480 0.0000
vt 132.9790 8.2677 0.0000
vt -0.0000 8.2677 0.0000
vt -132.9790 8.2677 0.0000
vt -132.9790 165.7480 0.0000
vt -296.4570 -0.0000 0.0000
vt -200.9670 165.7480 0.0000
vt -200.9670 8.2677 0.0000
vt 13.8705 200.9670 0.0000
vt 0.0000 200.9670 0.0000
vt 200.9670 8.2677 0.0000
vt 200.9670 165.7480 0.0000
vt 13.8705 8.2677 0.0000
vt 0.0000 8.2677 0.0000
vt 728.1040 0.0000 0.0000
# 75 texture coords

o salas2
g salas2
usemtl FrontColor
s 1
f 1/1/1 2/2/1 3/3/1 
f 1/1/1 3/3/1 4/4/1 
f 1/1/1 4/4/1 5/5/1 
f 6/6/2 7/7/2 8/8/2 
f 6/6/2 8/8/2 9/9/2 
f 6/6/2 9/9/2 2/10/2 
f 6/6/2 2/10/2 1/11/2 
f 6/6/3 10/12/3 11/13/3 
f 11/13/3 7/14/3 6/6/3 
f 10/6/4 5/11/4 4/15/4 
f 10/6/4 4/15/4 12/16/4 
f 13/17/4 14/18/4 11/14/4 
f 15/19/4 13/17/4 11/14/4 
f 12/16/4 15/19/4 11/14/4 
f 10/6/4 12/16/4 11/14/4 
f 5/20/5 10/21/5 6/6/5 
f 6/6/5 1/11/5 5/20/5 
f 12/22/6 4/23/6 3/24/6 
f 3/24/6 16/25/6 12/22/6 
f 17/17/7 18/19/7 16/16/7 
f 16/16/7 3/15/7 17/17/7 
f 12/4/1 16/3/1 18/26/1 
f 12/4/1 18/26/1 19/27/1 
f 12/4/1 19/27/1 15/28/1 
f 18/29/8 17/30/8 20/31/8 
f 20/31/8 19/32/8 18/29/8 
f 21/33/9 20/27/9 17/26/9 
f 21/33/9 17/26/9 9/34/9 
f 21/33/9 9/34/9 8/7/9 
f 14/35/1 13/28/1 20/27/1 
f 20/27/1 21/33/1 14/35/1 
f 13/20/10 15/36/10 19/32/10 
f 19/32/10 20/31/10 13/20/10 
f 21/37/11 8/38/11 7/1/11 
f 7/1/11 11/39/11 14/23/11 
f 21/37/11 7/1/11 14/23/11 
f 2/40/12 9/34/12 17/26/12 
f 17/26/12 3/3/12 2/40/12 
f 22/41/7 13/42/7 15/43/7 
f 15/43/7 23/44/7 22/41/7 
f 24/45/6 15/46/6 13/47/6 
f 13/47/6 25/48/6 24/45/6 
f 25/49/1 13/50/1 22/1/1 
f 22/1/1 26/51/1 25/49/1 
f 26/52/13 22/41/13 23/44/13 
f 23/44/13 27/53/13 26/52/13 
f 27/51/14 23/6/14 15/54/14 
f 15/54/14 24/55/14 27/51/14 
f 27/1/15 24/50/15 25/56/15 
f 25/56/15 26/47/15 27/1/15 
f 4/41/7 28/42/7 29/43/7 
f 29/43/7 12/44/7 4/41/7 
f 30/45/6 29/46/6 28/47/6 
f 28/47/6 31/48/6 30/45/6 
f 31/49/1 28/50/1 4/1/1 
f 4/1/1 32/51/1 31/49/1 
f 32/52/13 4/41/13 12/44/13 
f 12/44/13 33/53/13 32/52/13 
f 33/51/14 12/6/14 29/54/14 
f 29/54/14 30/55/14 33/51/14 
f 33/1/15 30/50/15 31/56/15 
f 31/56/15 32/47/15 33/1/15 
f 34/12/3 12/6/3 35/57/3 
f 35/57/3 36/13/3 34/12/3 
f 37/9/15 38/8/15 35/58/15 
f 35/58/15 12/6/15 39/11/15 
f 35/58/15 39/11/15 40/10/15 
f 37/9/15 35/58/15 40/10/15 
f 41/3/9 40/40/9 39/44/9 
f 41/3/9 39/44/9 42/59/9 
f 41/3/9 42/59/9 43/60/9 
f 37/34/9 40/40/9 41/3/9 
f 41/3/9 44/26/9 37/34/9 
f 45/19/7 44/17/7 41/15/7 
f 41/15/7 46/16/7 45/19/7 
f 46/25/8 41/24/8 43/61/8 
f 43/61/8 47/62/8 46/25/8 
f 43/15/7 42/38/7 48/63/7 
f 48/63/7 47/16/7 43/15/7 
f 48/64/6 42/65/6 39/11/6 
f 48/64/6 39/11/6 12/6/6 
f 34/66/6 49/20/6 50/67/6 
f 34/66/6 50/67/6 51/68/6 
f 12/6/6 34/66/6 51/68/6 
f 48/64/6 12/6/6 51/68/6 
f 49/12/1 52/4/1 53/69/1 
f 53/69/1 50/70/1 49/12/1 
f 52/23/8 54/22/8 55/71/8 
f 55/71/8 53/72/8 52/23/8 
f 56/28/12 45/26/12 46/3/12 
f 56/28/12 46/3/12 47/60/12 
f 47/60/12 48/59/12 51/70/12 
f 47/60/12 51/70/12 55/69/12 
f 56/28/12 47/60/12 55/69/12 
f 56/28/12 55/69/12 54/4/12 
f 55/73/16 51/74/16 50/11/16 
f 50/11/16 53/10/16 55/73/16 
f 54/16/7 52/15/7 49/11/7 
f 54/16/7 49/11/7 34/6/7 
f 36/14/7 57/18/7 58/17/7 
f 36/14/7 58/17/7 56/19/7 
f 34/6/7 36/14/7 56/19/7 
f 54/16/7 34/6/7 56/19/7 
f 38/58/1 37/34/1 44/26/1 
f 38/58/1 44/26/1 58/28/1 
f 38/58/1 58/28/1 57/35/1 
f 45/29/6 56/36/6 58/20/6 
f 58/20/6 44/30/6 45/29/6 
f 35/1/8 38/38/8 57/23/8 
f 57/23/8 36/39/8 35/1/8 
f 58/42/4 59/41/4 60/44/4 
f 60/44/4 56/43/4 58/42/4 
f 59/41/17 61/52/17 62/53/17 
f 62/53/17 60/44/17 59/41/17 
f 63/50/2 62/1/2 61/47/2 
f 61/47/2 64/56/2 63/50/2 
f 58/50/18 64/49/18 61/51/18 
f 61/51/18 59/1/18 58/50/18 
f 56/46/5 63/45/5 64/48/5 
f 64/48/5 58/47/5 56/46/5 
f 60/6/3 62/51/3 63/55/3 
f 63/55/3 56/54/3 60/6/3 
f 65/42/4 52/41/4 54/44/4 
f 54/44/4 66/43/4 65/42/4 
f 52/41/17 67/52/17 68/53/17 
f 68/53/17 54/44/17 52/41/17 
f 69/50/2 68/1/2 67/47/2 
f 67/47/2 70/56/2 69/50/2 
f 65/50/18 70/49/18 67/51/18 
f 67/51/18 52/1/18 65/50/18 
f 66/46/5 69/45/5 70/48/5 
f 70/48/5 65/47/5 66/46/5 
f 54/6/3 68/51/3 69/55/3 
f 69/55/3 66/54/3 54/6/3 
f 71/6/3 11/12/3 72/13/3 
f 72/13/3 73/14/3 71/6/3 
f 11/6/5 14/11/5 74/15/5 
f 11/6/5 74/15/5 75/16/5 
f 76/17/5 77/18/5 72/14/5 
f 78/19/5 76/17/5 72/14/5 
f 75/16/5 78/19/5 72/14/5 
f 11/6/5 75/16/5 72/14/5 
f 11/66/19 71/6/19 79/11/19 
f 11/66/19 79/11/19 80/67/19 
f 11/66/19 80/67/19 14/20/19 
f 71/6/17 73/7/17 81/8/17 
f 71/6/17 81/8/17 82/9/17 
f 71/6/17 82/9/17 83/10/17 
f 71/6/17 83/10/17 79/11/17 
f 81/11/7 73/6/7 72/39/7 
f 72/39/7 77/23/7 81/11/7 
f 77/35/1 76/28/1 84/26/1 
f 77/35/1 84/26/1 82/75/1 
f 77/35/1 82/75/1 81/58/1 
f 78/36/16 85/29/16 84/30/16 
f 84/30/16 76/20/16 78/36/16 
f 84/17/5 85/19/5 86/16/5 
f 86/16/5 87/15/5 84/17/5 
f 88/69/12 86/3/12 85/26/12 
f 88/69/12 85/26/12 78/28/12 
f 88/69/12 78/28/12 75/4/12 
f 87/24/7 86/25/7 88/71/7 
f 88/71/7 89/72/7 87/24/7 
f 75/22/7 74/23/7 89/72/7 
f 89/72/7 88/71/7 75/22/7 
f 74/4/1 14/12/1 80/70/1 
f 80/70/1 89/69/1 74/4/1 
f 80/70/12 79/1/12 83/2/12 
f 80/70/12 83/2/12 87/3/12 
f 80/70/12 87/3/12 89/69/12 
f 83/40/9 82/34/9 84/26/9 
f 84/26/9 87/3/9 83/40/9 
f 90/41/8 76/42/8 78/43/8 
f 78/43/8 91/44/8 90/41/8 
f 92/45/7 78/46/7 76/47/7 
f 76/47/7 93/48/7 92/45/7 
f 93/49/12 76/50/12 90/1/12 
f 90/1/12 94/51/12 93/49/12 
f 94/52/15 90/41/15 91/44/15 
f 91/44/15 95/53/15 94/52/15 
f 95/51/20 91/6/20 78/54/20 
f 78/54/20 92/55/20 95/51/20 
f 95/1/11 92/50/11 93/56/11 
f 93/56/11 94/47/11 95/1/11 
f 74/41/8 96/42/8 97/43/8 
f 97/43/8 75/44/8 74/41/8 
f 98/45/7 97/46/7 96/47/7 
f 96/47/7 99/48/7 98/45/7 
f 99/49/12 96/50/12 74/1/12 
f 74/1/12 100/51/12 99/49/12 
f 100/52/15 74/41/15 75/44/15 
f 75/44/15 101/53/15 100/52/15 
f 101/51/20 75/6/20 97/54/20 
f 97/54/20 98/55/20 101/51/20 
f 101/1/11 98/50/11 99/56/11 
f 99/56/11 100/47/11 101/1/11 
# 196 faces

