# Blender 4.5.3 LTS
# www.blender.org
mtllib holograma.mtl
o Icosphere.001
v -0.023783 -0.886361 0.022531
v 0.561009 -0.446607 0.550865
v -0.099649 -0.653808 1.834879
v -0.894283 -0.448073 -0.001402
v 0.021257 0.879723 -0.822722
v 0.331109 -0.424883 -0.144711
v 0.210095 0.088500 1.532876
v -0.734253 0.569827 0.737894
v -0.705268 0.796930 -0.696119
v -0.045958 1.127997 -2.420787
v 0.572776 0.308212 -0.016948
v -0.109607 1.903808 -0.739465
v -0.190486 -0.782437 0.916028
v 0.425323 -0.850654 0.309011
v 0.262869 -0.525738 0.809012
v 0.612521 -0.524141 0.054086
v 0.296671 -0.896493 -0.354416
v -0.535190 -0.742624 0.018059
v -0.703247 -0.518675 0.766071
v -0.280326 -0.787250 -0.606183
v -0.229757 0.817489 -0.675892
v 0.184850 -0.175606 -0.669867
v 0.700799 -0.003291 0.318070
v 0.608834 0.025901 -0.186171
v 0.197286 -0.573511 1.458465
v 0.459944 -0.064930 0.816287
v -0.951058 0.000000 0.309013
v -0.220261 -0.182363 2.728789
v -0.043821 1.146456 -2.369695
v -0.644152 0.673344 -0.598722
v 0.169613 0.773840 -0.974525
v -0.000457 1.417451 -0.772827
v 0.360505 0.621234 0.123941
v -0.211711 0.994337 2.891437
v -0.850648 0.525736 0.000000
v -0.026899 1.843405 -0.714096
v 0.254478 0.909373 -0.741766
v 0.238683 0.778475 0.573144
v 0.403498 0.645082 0.080483
v -0.425264 0.850615 0.309050
v -0.416062 0.960805 -0.285880
v -0.074741 1.231202 -2.439074
vn 0.0047 -0.9932 0.1164
vn 0.9045 -0.3970 0.1557
vn -0.2706 -0.9607 0.0613
vn -0.2700 -0.9620 -0.0415
vn -0.1444 -0.9848 -0.0963
vn 0.9631 -0.2322 0.1361
vn 0.1988 -0.9787 -0.0519
vn -0.9412 -0.2647 0.2099
vn 0.1399 -0.9748 -0.1740
vn 0.9493 -0.0821 -0.3034
vn 0.9016 -0.0593 0.4285
vn 0.6836 -0.6035 0.4105
vn -0.9594 0.0681 -0.2738
vn 0.9985 0.0435 -0.0345
vn 0.5681 -0.4153 -0.7105
vn 0.9587 0.2165 0.1842
vn -0.6625 0.7490 0.0131
vn -0.6455 0.7476 0.1564
vn -0.9620 -0.2480 0.1147
vn 0.8915 0.4527 -0.0161
vn 0.9430 0.3156 -0.1056
vn -0.9739 0.0941 0.2067
vn 0.9599 0.2429 -0.1401
vn -0.9597 0.2540 -0.1202
vn 0.9275 -0.3596 0.1019
vn -0.7841 0.5143 0.3474
vn -0.9433 0.3288 0.0463
vn -0.6587 0.7416 0.1272
vn -0.6302 0.7746 0.0531
vn -0.1872 0.7207 0.6675
vn 0.1337 0.9888 -0.0661
vn 0.9659 0.1957 0.1694
vn 0.8707 0.4630 0.1659
vn 0.7176 -0.5734 0.3953
vn 0.6701 0.1251 0.7316
vn 0.9459 0.2470 -0.2105
vn 0.9100 0.1144 -0.3984
vn 0.9478 -0.2470 -0.2018
vn -0.9970 -0.0673 0.0393
vn 0.9970 0.0672 -0.0385
vn -0.8213 0.5287 -0.2142
vn -0.6681 -0.6355 -0.3871
vn -0.9443 -0.0130 -0.3289
vn -0.9556 0.2619 0.1351
vn -0.9703 -0.0262 0.2406
vn 0.9439 -0.0520 0.3262
vn 0.9425 -0.0553 0.3295
vn 0.8998 0.3676 0.2350
vn 0.7350 0.5314 0.4211
vn 0.8482 0.5084 0.1485
vn -0.9580 -0.2767 0.0750
vn -0.9232 -0.1307 -0.3613
vn 0.8980 0.0765 -0.4332
vn -0.6613 -0.6380 -0.3946
vn 0.2998 -0.9421 -0.1501
vn -0.0009 -0.4700 -0.8827
vn -0.9454 0.1370 0.2958
vn -0.9397 -0.2130 0.2677
vn -0.6552 -0.7011 0.2814
vn 0.9389 -0.0563 0.3394
vn 0.9172 -0.3933 0.0637
vn 0.6689 -0.2968 0.6815
vn 0.9618 0.2203 -0.1627
vn 0.9804 -0.0734 -0.1830
vn 0.4530 -0.3543 -0.8181
vn 0.9674 0.0406 -0.2501
vn 0.3222 -0.3371 -0.8846
vn 0.0440 -0.1365 -0.9897
vn -0.5008 -0.0218 -0.8653
vn -0.9254 0.0127 -0.3787
vn -0.2418 -0.3544 -0.9033
vn -0.6346 -0.7679 0.0873
vn -0.4864 -0.8610 0.1485
vn -0.4894 -0.8557 0.1682
vn 0.6179 0.2813 -0.7342
vn 0.8181 -0.5625 -0.1198
vn 0.0403 -0.9973 0.0611
vn 0.5041 -0.8608 0.0707
vn 0.5007 -0.6424 0.5802
vn 0.6270 -0.5442 0.5574
vt 0.181819 0.000000
vt 0.227273 0.078731
vt 0.136365 0.078731
vt 0.272728 0.157461
vt 0.318182 0.078731
vt 0.363637 0.157461
vt 0.909091 0.000000
vt 0.954545 0.078731
vt 0.863636 0.078731
vt 0.727273 0.000000
vt 0.772727 0.078731
vt 0.681818 0.078731
vt 0.545455 0.000000
vt 0.590909 0.078731
vt 0.500000 0.078731
vt 0.318182 0.236191
vt 0.090910 0.157461
vt 0.181819 0.157461
vt 0.136365 0.236191
vt 0.818182 0.157461
vt 0.909091 0.157461
vt 0.863636 0.236191
vt 0.636364 0.157461
vt 0.727273 0.157461
vt 0.681818 0.236191
vt 0.454546 0.157461
vt 0.545455 0.157461
vt 0.500000 0.236191
vt 0.227273 0.236191
vt 0.045455 0.236191
vt 0.772727 0.236191
vt 0.590909 0.236191
vt 0.409092 0.236191
vt 0.181819 0.314921
vt 0.272728 0.314921
vt 0.227273 0.393651
vt 0.000000 0.314921
vt 0.090910 0.314921
vt 0.045455 0.393651
vt 0.727273 0.314921
vt 0.818182 0.314921
vt 0.772727 0.393651
vt 0.545455 0.314921
vt 0.636364 0.314921
vt 0.590909 0.393651
vt 0.363637 0.314921
vt 0.454546 0.314921
vt 0.409092 0.393651
vt 0.500000 0.393651
vt 0.454546 0.472382
vt 0.681818 0.393651
vt 0.636364 0.472382
vt 0.863636 0.393651
vt 0.818182 0.472382
vt 0.909091 0.314921
vt 0.136365 0.393651
vt 0.090910 0.472382
vt 0.318182 0.393651
vt 0.272728 0.472382
vt 0.954545 0.236191
vt 1.000000 0.157461
vt 0.409092 0.078731
vt 0.363637 0.000000
s 0
usemtl Material.001
f 1/1/1 14/2/1 13/3/1
f 2/4/2 14/5/2 16/6/2
f 1/7/3 13/8/3 18/9/3
f 1/10/4 18/11/4 20/12/4
f 1/13/5 20/14/5 17/15/5
f 2/4/6 16/6/6 23/16/6
f 3/17/7 15/18/7 25/19/7
f 4/20/8 19/21/8 27/22/8
f 5/23/9 21/24/9 29/25/9
f 6/26/10 22/27/10 31/28/10
f 2/4/11 23/16/11 26/29/11
f 3/17/12 25/19/12 28/30/12
f 4/20/13 27/22/13 30/31/13
f 5/23/14 29/25/14 32/32/14
f 6/26/15 31/28/15 24/33/15
f 7/34/16 33/35/16 38/36/16
f 8/37/17 34/38/17 40/39/17
f 9/40/18 35/41/18 41/42/18
f 10/43/19 36/44/19 42/45/19
f 11/46/20 37/47/20 39/48/20
f 39/48/21 42/49/21 12/50/21
f 39/48/22 37/47/22 42/49/22
f 37/47/23 10/43/23 42/49/23
f 42/45/24 41/51/24 12/52/24
f 42/45/25 36/44/25 41/51/25
f 36/44/26 9/40/26 41/51/26
f 41/42/27 40/53/27 12/54/27
f 41/42/28 35/41/28 40/53/28
f 35/41/29 8/55/29 40/53/29
f 40/39/30 38/56/30 12/57/30
f 40/39/31 34/38/31 38/56/31
f 34/38/32 7/34/32 38/56/32
f 38/36/33 39/58/33 12/59/33
f 38/36/34 33/35/34 39/58/34
f 33/35/35 11/46/35 39/58/35
f 24/33/36 37/47/36 11/46/36
f 24/33/37 31/28/37 37/47/37
f 31/28/38 10/43/38 37/47/38
f 32/32/39 36/44/39 10/43/39
f 32/32/40 29/25/40 36/44/40
f 29/25/41 9/40/41 36/44/41
f 30/31/42 35/41/42 9/40/42
f 30/31/43 27/22/43 35/41/43
f 27/22/44 8/55/44 35/41/44
f 28/30/45 34/38/45 8/37/45
f 28/30/46 25/19/46 34/38/46
f 25/19/47 7/34/47 34/38/47
f 26/29/48 33/35/48 7/34/48
f 26/29/49 23/16/49 33/35/49
f 23/16/50 11/46/50 33/35/50
f 31/28/51 32/32/51 10/43/51
f 31/28/52 22/27/52 32/32/52
f 22/27/53 5/23/53 32/32/53
f 29/25/54 30/31/54 9/40/54
f 29/25/55 21/24/55 30/31/55
f 21/24/56 4/20/56 30/31/56
f 27/22/57 28/60/57 8/55/57
f 27/22/58 19/21/58 28/60/58
f 19/21/59 3/61/59 28/60/59
f 25/19/60 26/29/60 7/34/60
f 25/19/61 15/18/61 26/29/61
f 15/18/62 2/4/62 26/29/62
f 23/16/63 24/33/63 11/46/63
f 23/16/64 16/6/64 24/33/64
f 16/6/65 6/26/65 24/33/65
f 17/15/66 22/27/66 6/26/66
f 17/15/67 20/14/67 22/27/67
f 20/14/68 5/23/68 22/27/68
f 20/12/69 21/24/69 5/23/69
f 20/12/70 18/11/70 21/24/70
f 18/11/71 4/20/71 21/24/71
f 18/9/72 19/21/72 4/20/72
f 18/9/73 13/8/73 19/21/73
f 13/8/74 3/61/74 19/21/74
f 16/6/75 17/62/75 6/26/75
f 16/6/76 14/5/76 17/62/76
f 14/5/77 1/63/77 17/62/77
f 13/3/78 15/18/78 3/17/78
f 13/3/79 14/2/79 15/18/79
f 14/2/80 2/4/80 15/18/80
