# 3ds Max Wavefront OBJ Exporter v0.99 - (c)2007 guruware
# File Created: 10.11.2025 16:10:35

mtllib Sala2k.mtl

#
# object sala1
#

v  -0.2118 0.0816 21.4849
v  -0.2963 0.0816 6.6056
v  17.7320 0.0816 6.5032
v  17.8165 0.0816 21.3825
v  17.7320 0.1603 6.5032
v  -0.2963 0.1603 6.6056
v  -0.2118 0.1603 21.4849
v  17.8165 0.1603 21.3825
v  17.6728 0.0816 21.5550
v  17.5875 0.0816 6.5412
v  17.9237 0.0816 6.5393
v  18.0090 0.0816 21.5531
v  17.9237 4.1862 6.5393
v  17.5875 4.1862 6.5412
v  17.6728 4.1862 21.5550
v  18.0090 4.1862 21.5531
v  -0.4240 0.0816 21.8476
v  -0.4254 0.0816 21.5988
v  17.9237 0.0816 21.4946
v  17.9251 0.0816 21.7434
v  17.9237 4.2091 21.4946
v  -0.4254 4.2091 21.5988
v  -0.4240 4.2091 21.8476
v  17.9251 4.2091 21.7434
v  -0.4417 0.0816 21.6266
v  -0.5260 0.0816 6.7826
v  -0.3007 0.0816 6.7814
v  -0.2164 0.0816 21.6253
v  -0.3007 4.1831 6.7814
v  -0.5260 4.1831 6.7826
v  -0.4417 4.1831 21.6266
v  -0.2164 4.1831 21.6253
v  -0.5468 0.0816 6.7456
v  -0.5475 0.0816 6.6257
v  6.8921 0.0816 6.5834
v  6.8928 0.0816 6.7033
v  6.8921 4.0967 6.5834
v  -0.5475 4.0967 6.6257
v  -0.5468 4.0967 6.7456
v  6.8928 4.0967 6.7033
v  11.3952 0.0816 6.6684
v  11.3946 0.0816 6.5503
v  18.0076 0.0816 6.5127
v  18.0082 0.0816 6.6308
v  18.0076 4.2542 6.5127
v  11.3946 4.2542 6.5503
v  11.3952 4.2542 6.6684
v  18.0082 4.2542 6.6308
v  3.5154 1.8146 7.0959
v  3.5031 1.8146 6.7914
v  3.5022 1.8146 6.7677
v  3.5165 1.8146 7.1198
# 52 vertices

vn -0.5741 -0.5774 0.5807
vn -0.5807 -0.5774 -0.5741
vn 0.5741 -0.5774 -0.5807
vn 0.5807 -0.5774 0.5741
vn 0.5741 0.5774 -0.5807
vn -0.5807 0.5774 -0.5741
vn -0.5741 0.5774 0.5807
vn 0.5807 0.5774 0.5741
vn 0.0051 0.0000 0.9000
# 9 vertex normals

vt 0.0000 0.0000 0.0000
vt 1.0000 0.0000 0.0000
vt 1.0000 1.0000 0.0000
vt 0.0000 1.0000 0.0000
vt 3.9233 -1.4526 0.0000
vt 3.9233 -2.3398 0.0000
vt 3.9233 -2.4090 0.0000
vt 3.9233 -1.3831 0.0000
# 8 texture coords

o sala1
g sala1
usemtl sala1_Polished_Concrete_New
s 2
f 1/1/1 2/2/2 3/3/3 
f 3/3/3 4/4/4 1/1/1 
s 4
f 5/4/5 6/1/6 7/2/7 
f 7/2/7 8/3/8 5/4/5 
s 8
f 6/4/6 2/1/2 1/2/1 
f 1/2/1 7/3/7 6/4/6 
s 16
f 7/4/7 1/1/1 4/2/4 
f 4/2/4 8/3/8 7/4/7 
s 32
f 8/4/8 4/1/4 3/2/3 
f 3/2/3 5/3/5 8/4/8 
s 64
f 5/4/5 3/1/3 2/2/2 
f 2/2/2 6/3/6 5/4/5 
usemtl sala1_Heather_Jeans
s 2
f 9/1/1 10/2/2 11/3/3 
f 11/3/3 12/4/4 9/1/1 
s 4
f 13/4/5 14/1/6 15/2/7 
f 15/2/7 16/3/8 13/4/5 
s 8
f 14/4/6 10/1/2 9/2/1 
f 9/2/1 15/3/7 14/4/6 
s 16
f 15/4/7 9/1/1 12/2/4 
f 12/2/4 16/3/8 15/4/7 
s 32
f 16/4/8 12/1/4 11/2/3 
f 11/2/3 13/3/5 16/4/8 
s 64
f 13/4/5 11/1/3 10/2/2 
f 10/2/2 14/3/6 13/4/5 
s 2
f 17/1/1 18/2/2 19/3/3 
f 19/3/3 20/4/4 17/1/1 
s 4
f 21/4/5 22/1/6 23/2/7 
f 23/2/7 24/3/8 21/4/5 
s 8
f 22/4/6 18/1/2 17/2/1 
f 17/2/1 23/3/7 22/4/6 
s 16
f 23/4/7 17/1/1 20/2/4 
f 20/2/4 24/3/8 23/4/7 
s 32
f 24/4/8 20/1/4 19/2/3 
f 19/2/3 21/3/5 24/4/8 
s 64
f 21/4/5 19/1/3 18/2/2 
f 18/2/2 22/3/6 21/4/5 
s 2
f 25/1/1 26/2/2 27/3/3 
f 27/3/3 28/4/4 25/1/1 
s 4
f 29/4/5 30/1/6 31/2/7 
f 31/2/7 32/3/8 29/4/5 
s 8
f 30/4/6 26/1/2 25/2/1 
f 25/2/1 31/3/7 30/4/6 
s 16
f 31/4/7 25/1/1 28/2/4 
f 28/2/4 32/3/8 31/4/7 
s 32
f 32/4/8 28/1/4 27/2/3 
f 27/2/3 29/3/5 32/4/8 
s 64
f 29/4/5 27/1/3 26/2/2 
f 26/2/2 30/3/6 29/4/5 
s 2
f 33/1/1 34/2/2 35/3/3 
f 35/3/3 36/4/4 33/1/1 
s 4
f 37/4/5 38/1/6 39/2/7 
f 39/2/7 40/3/8 37/4/5 
s 8
f 38/4/6 34/1/2 33/2/1 
f 33/2/1 39/3/7 38/4/6 
s 16
f 39/4/7 33/1/1 36/2/4 
f 36/2/4 40/3/8 39/4/7 
s 32
f 40/4/8 36/1/4 35/2/3 
f 35/2/3 37/3/5 40/4/8 
s 64
f 37/4/5 35/1/3 34/2/2 
f 34/2/2 38/3/6 37/4/5 
s 2
f 41/1/1 42/2/2 43/3/3 
f 43/3/3 44/4/4 41/1/1 
s 4
f 45/4/5 46/1/6 47/2/7 
f 47/2/7 48/3/8 45/4/5 
s 8
f 46/4/6 42/1/2 41/2/1 
f 41/2/1 47/3/7 46/4/6 
s 16
f 47/4/7 41/1/1 44/2/4 
f 44/2/4 48/3/8 47/4/7 
s 32
f 48/4/8 44/1/4 43/2/3 
f 43/2/3 45/3/5 48/4/8 
s 64
f 45/4/5 43/1/3 42/2/2 
f 42/2/2 46/3/6 45/4/5 
usemtl sala1_03___Default
s 492
f 49/5/9 50/6/9 51/7/9 
f 51/7/9 52/8/9 49/5/9 
# 74 faces

